<?xml version="1.0" encoding="UTF-8" standalone="no"?>
<!-- Created with Inkscape (http://www.inkscape.org/) -->

<svg
   width="145.54401mm"
   height="145.54401mm"
   viewBox="0 0 145.544 145.54401"
   version="1.1"
   id="svg5"
   xml:space="preserve"
   inkscape:export-filename="Icarus.svg"
   inkscape:export-xdpi="213"
   inkscape:export-ydpi="213"
   inkscape:version="1.2.2 (732a01da63, 2022-12-09, custom)"
   sodipodi:docname="Icarus.svg"
   xmlns:inkscape="http://www.inkscape.org/namespaces/inkscape"
   xmlns:sodipodi="http://sodipodi.sourceforge.net/DTD/sodipodi-0.dtd"
   xmlns:xlink="http://www.w3.org/1999/xlink"
   xmlns="http://www.w3.org/2000/svg"
   xmlns:svg="http://www.w3.org/2000/svg"><sodipodi:namedview
     id="namedview7"
     pagecolor="#ffffff"
     bordercolor="#000000"
     borderopacity="0.25"
     inkscape:showpageshadow="2"
     inkscape:pageopacity="0.0"
     inkscape:pagecheckerboard="0"
     inkscape:deskcolor="#d1d1d1"
     inkscape:document-units="mm"
     showgrid="false"
     inkscape:zoom="0.70710678"
     inkscape:cx="137.17872"
     inkscape:cy="283.54982"
     inkscape:window-width="1352"
     inkscape:window-height="731"
     inkscape:window-x="5"
     inkscape:window-y="28"
     inkscape:window-maximized="1"
     inkscape:current-layer="text1246" /><defs
     id="defs2"><linearGradient
       inkscape:collect="always"
       id="linearGradient1333"><stop
         style="stop-color:#4f4f6c;stop-opacity:1;"
         offset="0"
         id="stop1329" /><stop
         style="stop-color:#637677;stop-opacity:1;"
         offset="1"
         id="stop1331" /></linearGradient><linearGradient
       inkscape:collect="always"
       id="linearGradient1302"><stop
         style="stop-color:#8bb359;stop-opacity:1;"
         offset="0"
         id="stop1298" /><stop
         style="stop-color:#3e76bf;stop-opacity:1;"
         offset="1"
         id="stop1300" /></linearGradient><linearGradient
       inkscape:collect="always"
       id="linearGradient1180"><stop
         style="stop-color:#95ad25;stop-opacity:1;"
         offset="0"
         id="stop1176" /><stop
         style="stop-color:#d15454;stop-opacity:0;"
         offset="1"
         id="stop1178" /></linearGradient><linearGradient
       inkscape:collect="always"
       id="linearGradient912"><stop
         style="stop-color:#a688c8;stop-opacity:1;"
         offset="0"
         id="stop908" /><stop
         style="stop-color:#3a5467;stop-opacity:1;"
         offset="1"
         id="stop910" /></linearGradient><linearGradient
       inkscape:collect="always"
       xlink:href="#linearGradient912"
       id="linearGradient914"
       x1="-7.2943401"
       y1="118.31127"
       x2="257.289"
       y2="118.31127"
       gradientUnits="userSpaceOnUse"
       gradientTransform="matrix(0.43433072,0.21494093,-0.21494093,0.43433072,58.549899,27.75621)" /><linearGradient
       inkscape:collect="always"
       xlink:href="#linearGradient1180"
       id="linearGradient1186"
       x1="148.9314"
       y1="98.180679"
       x2="159.72523"
       y2="98.180679"
       gradientUnits="userSpaceOnUse"
       gradientTransform="matrix(0.93899361,0,0,0.82394745,9.0857645,19.995189)" /><radialGradient
       inkscape:collect="always"
       xlink:href="#linearGradient1302"
       id="radialGradient1304"
       cx="92.921432"
       cy="127.41053"
       fx="92.921432"
       fy="127.41053"
       r="56.393284"
       gradientTransform="matrix(1,0,0,0.232018,-0.17356848,101.024)"
       gradientUnits="userSpaceOnUse" /><linearGradient
       inkscape:collect="always"
       xlink:href="#linearGradient1333"
       id="linearGradient1335"
       x1="34.485241"
       y1="127.32322"
       x2="150.12376"
       y2="127.32322"
       gradientUnits="userSpaceOnUse"
       gradientTransform="translate(-1.2049911,3.1750001)" /></defs><g
     inkscape:label="Layer 1"
     inkscape:groupmode="layer"
     id="layer1"
     transform="translate(-24.858773,-56.34359)"><g
       id="g1190"
       transform="rotate(-3.7,91.845471,84.783624)" /><g
       id="g1723"
       transform="translate(5.2916669,27.516678)"><path
         id="path214"
         style="fill:url(#linearGradient914);fill-opacity:1;stroke-width:0.128218"
         d="m 144.09613,68.637728 c -0.45107,-0.223229 -0.96764,-0.477208 -1.23011,-0.604141 -3.56662,-1.722634 -6.03481,-2.589762 -8.37464,-2.941109 -2.73303,-0.410271 -5.02074,-0.07158 -6.54211,0.967462 -0.4942,0.33762 -0.90884,0.750799 -1.30019,1.296756 -0.1473,0.205437 -0.47046,0.78457 -0.56712,1.016653 -0.50595,1.215758 -0.56956,2.60467 -0.19041,4.172476 0.42168,1.743637 1.42742,3.763557 2.94059,5.907016 0.59185,0.838525 0.95641,1.307468 2.36679,3.048045 8.90729,10.990337 26.07172,32.159204 26.07389,32.156034 0.001,-0.002 -4.66774,-7.84838 -10.37637,-17.436401 -5.70834,-9.588124 -10.45208,-17.56608 -10.54189,-17.728772 -1.30175,-2.363647 -1.83351,-4.45106 -1.54256,-6.062738 0.16634,-0.920668 0.6783,-1.842923 1.38632,-2.497248 1.02792,-0.94901 2.55951,-1.448676 4.50401,-1.468679 1.21172,-0.01282 2.67088,0.181306 3.96077,0.526145 0.14935,0.03988 0.27167,0.07071 0.2709,0.06776 -0.001,-0.0036 -0.38678,-0.196022 -0.83787,-0.419255 z m -19.74799,-8.272015 c -0.005,-0.0085 -2.25442,-0.450639 -3.0186,-0.593798 -5.19134,-0.969655 -8.67032,-1.222223 -11.80379,-0.856318 -3.65997,0.427535 -6.48522,1.662424 -8.07952,3.531192 -0.51788,0.607172 -0.9069,1.283819 -1.21962,2.123093 -0.11774,0.31582 -0.330916,1.174104 -0.374211,1.506499 -0.225976,1.741177 0.178201,3.550752 1.214131,5.435481 1.15213,2.096111 3.15156,4.343 5.84785,6.571986 1.05468,0.872013 1.68771,1.348202 4.1109,3.094731 15.30299,11.027284 44.78888,32.265171 44.79068,32.260151 0.001,-0.003 -8.74984,-8.46705 -19.44691,-18.808218 -10.69672,-10.341365 -19.58963,-18.947663 -19.76204,-19.125618 -2.50127,-2.586205 -3.91493,-5.086844 -4.10399,-7.262296 -0.10783,-1.242755 0.22861,-2.608307 0.91086,-3.697736 0.99085,-1.580431 2.78685,-2.758966 5.2818,-3.464471 1.55464,-0.440094 3.50018,-0.70015 5.28041,-0.707372 0.20612,-8.88e-4 0.37484,-0.0039 0.37205,-0.0073 z M 95.104046,56.49504 c -0.0096,-0.0092 -3.057918,0.207936 -4.09123,0.290888 -7.018618,0.567176 -11.583049,1.458282 -15.486936,3.024514 -4.559791,1.829571 -7.763252,4.406182 -9.161297,7.368063 -0.454075,0.962277 -0.718141,1.968793 -0.827105,3.157992 -0.04109,0.44752 -0.01502,1.62654 0.04547,2.069368 0.31793,2.319334 1.469647,4.506626 3.461438,6.569536 2.215195,2.29427 5.573943,4.486501 9.822445,6.411921 1.661894,0.753306 2.642708,1.144534 6.371177,2.544664 23.545162,8.838979 68.909282,25.857294 68.909382,25.850314 6.1e-4,-0.004 -14.2184,-7.83541 -31.5973,-17.401739 C 105.17154,86.813862 90.720501,78.848694 90.436426,78.68004 86.313985,76.226795 83.621315,73.504146 82.617532,70.771109 82.044346,69.209765 81.99962,67.334697 82.49662,65.694438 c 0.72242,-2.379905 2.621544,-4.523964 5.585141,-6.303929 1.846489,-1.109739 4.258234,-2.124608 6.546316,-2.756238 0.264887,-0.0732 0.479516,-0.135802 0.475969,-0.139231 z m -38.409187,8.821395 c -0.01583,-0.0078 -3.807661,1.483698 -5.089288,2.001241 -8.703789,3.520106 -14.155896,6.473899 -18.498403,10.023215 -5.072027,4.145887 -8.121046,8.701757 -8.71883,13.027643 -0.194049,1.405372 -0.127707,2.791154 0.207817,4.347638 0.126155,0.585775 0.628937,2.075743 0.882467,2.615043 1.329273,2.824175 3.666584,5.147315 7.023304,6.977825 3.733216,2.0358 8.880466,3.48585 15.053629,4.24163 2.414823,0.29581 3.819305,0.40222 9.12138,0.69701 33.481288,1.85806 97.984775,5.42305 97.981115,5.41466 -9e-4,-0.006 -21.21436,-4.29994 -47.14018,-9.54203 -25.925522,-5.242711 -47.487796,-9.61508 -47.916505,-9.716333 -6.223228,-1.47761 -10.734869,-3.867946 -13.101718,-6.945022 -1.351821,-1.757984 -2.155791,-4.125858 -2.177455,-6.410953 -0.02971,-3.316016 1.531599,-6.800822 4.59253,-10.247147 1.906857,-2.148197 4.570666,-4.401306 7.229995,-6.117246 0.307833,-0.198747 0.555968,-0.364291 0.550142,-0.367174 z"
         transform="rotate(-3.7,91.845464,84.783633)" /><path
         d="m 148.95537,90.832368 c 0.0794,-0.744327 0.34923,-1.343656 0.8104,-1.800519 0.0881,-0.0872 0.34879,-0.292563 0.45763,-0.360434 0.28911,-0.180461 0.56701,-0.299322 0.87179,-0.372987 0.93817,-0.226648 2.13913,-0.0308 3.43421,0.560157 1.10875,0.505986 2.19314,1.257276 3.6797,2.548944 0.21863,0.190354 0.85769,0.756392 0.85764,0.759702 3.6e-4,0.0016 -0.0558,-0.03056 -0.12359,-0.07048 -0.58531,-0.345201 -1.28097,-0.649733 -1.88853,-0.826388 -0.97489,-0.283719 -1.82568,-0.295048 -2.50192,-0.03363 -0.46587,0.180344 -0.87985,0.507618 -1.12078,0.8862 -0.42164,0.662768 -0.51397,1.657804 -0.2688,2.889799 0.017,0.08484 1.0194,4.295751 2.22761,9.357678 1.20837,5.06191 2.19598,9.20412 2.19493,9.20472 -9.5e-4,8.2e-4 -4.94798,-11.86098 -7.51398,-18.018796 -0.40624,-0.975191 -0.50799,-1.235654 -0.65994,-1.692274 -0.38852,-1.167266 -0.54461,-2.203828 -0.45637,-3.03164 z"
         id="path214-7-5"
         style="fill:url(#linearGradient1186);fill-opacity:1;stroke-width:0.0267631"
         transform="rotate(-3.7,91.845464,84.783633)" /><g
         aria-label="Icarus "
         id="text1246"
         style="font-weight:bold;font-size:33.8667px;font-family:Orbitron;-inkscape-font-specification:'Orbitron Bold';text-align:center;text-anchor:middle;fill:#a7adbd;stroke:url(#linearGradient1335);stroke-linecap:square;stroke-miterlimit:90"><path
           d="m 33.780256,118.30616 h 4.470404 v 24.38403 h -4.470404 z"
           style="stroke-linejoin:bevel"
           id="path441" /><path
           d="m 60.975192,138.25365 v 4.43654 H 45.701311 q -0.982135,0 -1.828802,-0.37254 -0.846667,-0.37253 -1.490135,-0.98213 -0.6096,-0.64347 -0.982134,-1.49014 -0.372534,-0.84666 -0.372534,-1.8288 V 127.7211 q 0,-0.94826 0.372534,-1.79493 0.372534,-0.88053 0.982134,-1.49014 0.643468,-0.64346 1.490135,-1.016 0.846667,-0.37253 1.828802,-0.37253 h 15.206148 v 4.43654 H 45.701311 q -0.237067,0 -0.237067,0.23706 v 10.29548 q 0,0.23707 0.237067,0.23707 z"
           style="stroke-linejoin:bevel"
           id="path443" /><path
           d="m 79.364755,123.0475 q 0.948268,0 1.794936,0.37253 0.880534,0.37254 1.490134,1.016 0.643468,0.60961 1.016001,1.49014 0.372534,0.84667 0.372534,1.79493 v 14.96909 H 68.764479 q -0.982135,0 -1.828802,-0.37254 -0.846668,-0.37253 -1.490135,-0.98213 -0.6096,-0.64347 -0.982134,-1.49014 -0.372534,-0.84666 -0.372534,-1.8288 v -7.38294 h 15.510948 v -2.91254 q 0,-0.23706 -0.237067,-0.23706 H 64.090874 v -4.43654 z m 0.237067,12.05654 h -11.07441 v 2.91254 q 0,0.23707 0.237067,0.23707 h 10.837343 z"
           style="stroke-linejoin:bevel"
           id="path445" /><path
           d="m 102.59725,123.0475 v 4.43654 H 91.692169 q -0.237067,0 -0.237067,0.23706 v 14.96909 H 87.018565 V 127.7211 q 0,-0.94826 0.372533,-1.79493 0.372534,-0.88053 0.982135,-1.49014 0.643467,-0.64346 1.490134,-1.016 0.846668,-0.37253 1.828802,-0.37253 z"
           style="stroke-linejoin:bevel"
           id="path447" /><path
           d="m 125.22014,123.0475 v 14.96908 q 0,0.98214 -0.37253,1.8288 -0.37253,0.84667 -1.016,1.49014 -0.6096,0.6096 -1.49014,0.98213 -0.84666,0.37254 -1.79493,0.37254 h -10.60028 q -0.98213,0 -1.8288,-0.37254 -0.84667,-0.37253 -1.49013,-0.98213 -0.64347,-0.64347 -1.01601,-1.49014 -0.33866,-0.84666 -0.33866,-1.8288 V 123.0475 h 4.43654 v 14.96908 q 0,0.23707 0.23706,0.23707 h 10.60028 q 0.23707,0 0.23707,-0.23707 V 123.0475 Z"
           style="stroke-linejoin:bevel"
           id="path449" /><path
           d="m 148.41878,128.56777 h -4.43653 v -0.84667 q 0,-0.23706 -0.23707,-0.23706 H 133.1449 q -0.23706,0 -0.23706,0.23706 v 2.70934 q 0,0.2032 0.23706,0.2032 h 10.60028 q 0.98213,0 1.8288,0.37253 0.84667,0.37254 1.49014,1.01601 0.64346,0.6096 0.98213,1.49013 0.37253,0.84667 0.37253,1.79494 v 2.70933 q 0,0.98214 -0.37253,1.8288 -0.33867,0.84667 -0.98213,1.49014 -0.64347,0.6096 -1.49014,0.98213 -0.84667,0.37254 -1.8288,0.37254 H 133.1449 q -0.98213,0 -1.8288,-0.37254 -0.84667,-0.37253 -1.49013,-0.98213 -0.60961,-0.64347 -0.98214,-1.49014 -0.37253,-0.84666 -0.37253,-1.8288 v -0.84667 h 4.43654 v 0.84667 q 0,0.23707 0.23706,0.23707 h 10.60028 q 0.23707,0 0.23707,-0.23707 v -2.70933 q 0,-0.20321 -0.23707,-0.20321 H 133.1449 q -0.98213,0 -1.8288,-0.37253 -0.84667,-0.37253 -1.49013,-0.98213 -0.60961,-0.64347 -0.98214,-1.49014 -0.37253,-0.84667 -0.37253,-1.8288 v -2.70934 q 0,-0.94826 0.37253,-1.79493 0.37253,-0.88053 0.98214,-1.49014 0.64346,-0.64346 1.49013,-1.016 0.84667,-0.37253 1.8288,-0.37253 h 10.60028 q 0.98213,0 1.8288,0.37253 0.84667,0.37254 1.49014,1.016 0.64346,0.60961 0.98213,1.49014 0.37253,0.84667 0.37253,1.79493 z"
           style="stroke-linejoin:bevel"
           id="path451" /></g></g></g></svg>
